<?xml version="1.0" encoding="utf-8"?>
<svg version="1.1" xmlns:xlink="http://www.w3.org/1999/xlink" width="52px" height="62px" xmlns="http://www.w3.org/2000/svg">
  <g transform="matrix(1 0 0 1 -417 -368 )">
    <path d="M 39.135416666666664 2.3526785714285734  L 49.697916666666664 13.147321428571427  C 50.329861111111114 13.793154761904757  50.87152777777778 14.66964285714286  51.322916666666664 15.776785714285714  C 51.77430555555556 16.883928571428573  52 17.898809523809522  52 18.821428571428573  L 52 58.67857142857142  C 52 59.601190476190474  51.68402777777777 60.385416666666664  51.052083333333336 61.03125  C 50.42013888888889 61.677083333333336  49.65277777777778 62  48.75 62  L 3.25 62  C 2.3472222222222223 62  1.5798611111111112 61.677083333333336  0.9479166666666667 61.03125  C 0.3159722222222222 60.385416666666664  0 59.601190476190474  0 58.67857142857142  L 0 3.3214285714285734  C 0 2.398809523809522  0.3159722222222222 1.614583333333331  0.9479166666666667 0.96875  C 1.5798611111111112 0.32291666666666896  2.3472222222222223 0  3.25 0  L 33.583333333333336 0  C 34.486111111111114 0  35.479166666666664 0.23065476190476453  36.5625 0.6919642857142867  C 37.645833333333336 1.1532738095238089  38.50347222222223 1.7068452380952355  39.135416666666664 2.3526785714285734  Z M 36.0546875 5.46651785714286  C 35.783854166666664 5.18973214285714  35.32118055555556 4.936011904761898  34 4.70535714285714  L 34 18  L 47.395833333333336 18  C 47.17013888888889 17.045386904761898  46.921875 16.57254464285714  46.651041666666664 16.295758928571427  L 36.0546875 5.46651785714286  Z M 5 57  L 47 57  L 47 23  L 33.583333333333336 23  C 32.68055555555556 22.14285714285714  31.913194444444446 21.81994047619047  31.28125 21.17410714285714  C 30.649305555555554 20.52827380952381  30.333333333333336 19.74404761904761  30 18.821428571428573  L 30 5  L 5 5  L 5 57  Z M 18.044270833333332 27  L 7.888020833333334 27  L 7.888020833333334 30.2734375  L 10.2578125 30.2734375  L 15.809895833333332 53.142857142857146  L 21.192708333333332 53.142857142857146  L 25.526041666666668 36.362723214285715  C 25.68402777777778 35.90141369047619  25.796875 35.370907738095234  25.864583333333332 34.771205357142854  C 25.90972222222222 34.402157738095234  25.932291666666668 34.125372023809526  25.932291666666668 33.940848214285715  L 26.067708333333336 33.940848214285715  L 26.169270833333336 34.771205357142854  C 26.19184027777778 34.840401785714285  26.23133680555556 35.071056547619044  26.287760416666664 35.463169642857146  C 26.34418402777778 35.855282738095234  26.40625 36.15513392857142  26.473958333333336 36.362723214285715  L 30.807291666666664 53.142857142857146  L 36.190104166666664 53.142857142857146  L 41.7421875 30.2734375  L 44.111979166666664 30.2734375  L 44.111979166666664 27  L 33.955729166666664 27  L 33.955729166666664 30.2734375  L 37.002604166666664 30.2734375  L 33.651041666666664 45.427455357142854  C 33.53819444444444 45.88876488095238  33.45920138888889 46.419270833333336  33.4140625 47.018973214285715  L 33.346354166666664 47.745535714285715  L 33.2109375 47.745535714285715  C 33.21093750000001 47.676339285714285  33.20529513888889 47.601376488095234  33.194010416666664 47.52064732142858  C 33.18272569444444 47.43991815476191  33.165798611111114 47.34765625  33.143229166666664 47.243861607142854  C 33.12065972222223 47.140066964285715  33.10937500000001 47.065104166666664  33.109375 47.018973214285715  C 33.08680555555556 46.903645833333336  33.041666666666664 46.661458333333336  32.973958333333336 46.292410714285715  C 32.90625 45.92336309523809  32.84982638888889 45.635044642857146  32.8046875 45.427455357142854  L 27.9296875 26.571428571428573  L 24.0703125 26.571428571428573  L 19.1953125 45.427455357142854  C 19.150173611111114 45.635044642857146  19.099392361111114 45.917596726190474  19.04296875 46.275111607142854  C 18.98654513888889 46.632626488095234  18.947048611111114 46.880580357142854  18.924479166666668 47.018973214285715  L 18.7890625 47.745535714285715  L 18.653645833333332 47.745535714285715  L 18.5859375 47.018973214285715  C 18.540798611111114 46.419270833333336  18.461805555555557 45.88876488095238  18.348958333333332 45.427455357142854  L 14.997395833333332 30.2734375  L 18.044270833333332 30.2734375  L 18.044270833333332 27  Z " fill-rule="nonzero" fill="#000000" stroke="none" transform="matrix(1 0 0 1 417 368 )" />
  </g>
</svg>